<svg width="516" height="637" viewBox="0 0 516 637" fill="none" xmlns="http://www.w3.org/2000/svg">
<rect width="516" height="637" rx="50" fill="white"/>
<rect x="61" y="74" width="394" height="487.798" rx="47" fill="white" stroke="#D9DFFC" stroke-width="6" stroke-dasharray="12 12"/>
<path d="M251 341C247.833 337.667 246.25 333.583 246.25 328.75C246.25 323.917 247.917 319.833 251.25 316.5C254.583 313.167 258.583 311.5 263.25 311.5C268.083 311.5 272.167 313.167 275.5 316.5C278.833 319.833 280.5 323.917 280.5 328.75C280.5 333.417 278.833 337.417 275.5 340.75C272.167 344.083 268.083 345.75 263.25 345.75C258.417 345.75 254.333 344.167 251 341ZM244.5 347.5C249.667 352.667 255.917 355.25 263.25 355.25C270.583 355.25 276.833 352.667 282 347.5C287.333 342.333 290 336.083 290 328.75C290 321.417 287.333 315.167 282 310C276.833 304.667 270.583 302 263.25 302C255.917 302 249.667 304.667 244.5 310C239.333 315.167 236.75 321.417 236.75 328.75C236.75 336.083 239.333 342.333 244.5 347.5ZM226 307.25V291.25H242V275.25H279.25L289 286H306C308.833 286 311.333 287.083 313.5 289.25C315.667 291.417 316.75 293.917 316.75 296.75V360.75C316.75 363.583 315.667 366.083 313.5 368.25C311.333 370.25 308.833 371.25 306 371.25H220.75C217.917 371.25 215.417 370.25 213.25 368.25C211.083 366.083 210 363.583 210 360.75V307.25H226ZM210 275.25V259.25H220.75V275.25H236.75V286H220.75V302H210V286H194V275.25H210Z" fill="#D9DFFC"/>
</svg>
