<svg width="1920" height="1080" viewBox="0 0 1920 1080" fill="none" xmlns="http://www.w3.org/2000/svg">
<rect width="1920" height="1080" fill="#D9DFFC"/>
<path d="M1048 329.502C1066.42 396.99 1129.26 470.262 1206.81 543.255C1260.25 593.563 1320.92 643.942 1379.23 692.366C1405.59 714.251 1431.46 735.738 1455.97 756.637C1495.37 790.237 1531.26 822.328 1560.04 852.187C1588.85 882.073 1610.41 909.584 1621.3 934.017C1632.16 958.371 1632.33 979.38 1618.87 996.774C1605.28 1014.35 1577.48 1028.65 1531.28 1038.6C1438.95 1058.48 1299.24 1056.22 1140.29 1037.38C981.405 1018.54 803.493 983.154 634.871 936.919C466.236 890.682 306.973 833.614 185.349 771.438C124.535 740.348 73.1995 708.016 34.8202 675.168C-3.58493 642.298 -28.8392 609.064 -37.8133 576.197C-74.1225 443.216 -32.3543 306.574 64.8693 193.114C162.092 79.6553 314.686 -10.4966 499.642 -50.3315C684.61 -90.1692 803.278 -61.6616 884.829 9.60693C966.556 81.0292 1011.48 195.763 1048 329.502Z" stroke="#2F3A78" stroke-opacity="0.3" stroke-width="4"/>
<path d="M1023.6 347.607C1040.62 409.946 1098.67 477.6 1170.27 544.966C1219.62 591.4 1275.64 637.901 1329.48 682.593C1353.81 702.791 1377.7 722.62 1400.32 741.906C1436.7 772.915 1469.83 802.528 1496.4 830.08C1523 857.66 1542.88 883.034 1552.93 905.558C1562.94 928.005 1563.08 947.334 1550.7 963.334C1538.17 979.519 1512.55 992.708 1469.89 1001.9C1384.66 1020.25 1255.67 1018.18 1108.91 1000.8C962.207 983.423 797.937 950.78 642.245 908.121C486.541 865.458 339.497 812.801 227.212 755.429C171.067 726.741 123.68 696.909 88.2579 666.604C52.8101 636.278 29.5218 605.631 21.2508 575.338C-12.2461 452.657 26.3143 326.579 116.079 221.872C205.843 117.165 346.727 33.9556 517.489 -2.82234C688.263 -39.603 797.777 -13.2966 873.019 52.4317C948.437 118.314 989.897 224.168 1023.6 347.607Z" stroke="#2F3A78" stroke-opacity="0.3" stroke-width="4"/>
<path d="M875.201 453.565C883.568 484.208 912.021 517.307 946.84 550.077C970.868 572.692 998.162 595.354 1024.36 617.109C1036.19 626.929 1047.79 636.565 1058.78 645.927C1076.46 661.007 1092.54 675.387 1105.43 688.751C1118.34 702.143 1127.9 714.378 1132.71 725.162C1137.49 735.868 1137.47 744.856 1131.74 752.267C1125.86 759.863 1113.69 766.214 1093.01 770.668C1051.73 779.558 989.145 778.564 917.797 770.108C846.505 761.658 766.665 745.784 690.991 725.04C615.305 704.292 543.867 678.695 489.347 650.828C462.084 636.893 439.119 622.425 421.98 607.758C404.816 593.069 393.672 578.333 389.728 563.889C373.539 504.599 392.14 443.584 435.641 392.826C479.141 342.069 547.458 301.693 630.316 283.848C713.186 266 766.047 278.824 802.286 310.488C838.7 342.307 858.805 393.517 875.201 453.565Z" stroke="#2F3A78" stroke-opacity="0.3" stroke-width="4"/>
<path d="M832.649 484.271C838.521 505.776 858.463 528.907 882.706 551.696C899.453 567.438 918.487 583.222 936.739 598.358C944.971 605.184 953.045 611.879 960.677 618.379C972.989 628.863 984.167 638.847 993.116 648.118C1002.09 657.418 1008.69 665.862 1011.99 673.26C1015.26 680.58 1015.19 686.586 1011.37 691.523C1007.4 696.645 999.092 701.028 984.723 704.123C956.071 710.294 912.557 709.625 862.878 703.758C813.254 697.898 757.675 686.877 704.996 672.468C652.305 658.055 602.596 640.276 564.679 620.926C545.718 611.251 529.774 601.217 517.893 591.062C505.985 580.885 498.336 570.739 495.64 560.864C484.442 519.853 497.325 477.591 527.55 442.373C557.774 407.157 605.256 379.113 662.865 366.705C720.487 354.295 757.069 363.22 782.091 385.057C807.289 407.048 821.244 442.5 832.649 484.271Z" stroke="#2F3A78" stroke-opacity="0.3" stroke-width="4"/>
<path d="M794.023 512.079C797.637 525.317 809.863 539.433 824.518 553.195C834.664 562.723 846.209 572.287 857.256 581.438C862.227 585.557 867.098 589.592 871.695 593.503C879.134 599.831 885.867 605.84 891.248 611.41C896.657 617.008 900.561 622.024 902.496 626.359C904.396 630.615 904.295 633.923 902.203 636.62C899.967 639.502 895.165 642.103 886.523 643.964C869.327 647.668 843.119 647.283 813.097 643.748C783.13 640.22 749.559 633.577 717.738 624.888C685.905 616.196 655.904 605.478 633.045 593.828C621.613 588.002 612.036 581.977 604.921 575.902C597.781 569.805 593.298 563.811 591.731 558.071C585.049 533.597 592.732 508.307 610.902 487.16C629.07 466.014 657.64 449.14 692.338 441.667C727.05 434.191 748.865 439.597 763.719 452.547C778.748 465.649 787.133 486.846 794.023 512.079Z" stroke="#2F3A78" stroke-opacity="0.3" stroke-width="4"/>
<path d="M978.101 400.168C992.152 451.628 1040.04 507.42 1099.02 562.91C1139.68 601.168 1185.85 639.486 1230.2 676.304C1250.25 692.939 1269.92 709.269 1288.55 725.148C1318.51 750.689 1345.79 775.073 1367.66 797.754C1389.56 820.464 1405.91 841.328 1414.16 859.822C1422.37 878.238 1422.46 894.018 1412.36 907.071C1402.11 920.307 1381.1 931.15 1345.99 938.713C1275.84 953.822 1169.63 952.12 1048.74 937.806C927.912 923.498 792.61 896.613 664.373 861.478C536.123 826.341 415.02 782.974 322.555 735.731C276.32 712.108 237.313 687.55 208.164 662.614C178.99 637.656 159.869 612.47 153.083 587.618C125.528 486.696 157.243 382.95 231.137 296.758C305.03 210.568 421.019 142.058 561.622 111.775C702.238 81.4901 792.314 103.167 854.173 157.202C916.207 211.391 950.338 298.488 978.101 400.168Z" stroke="#2F3A78" stroke-opacity="0.3" stroke-width="4"/>
<path d="M937.695 409.533C949.686 453.45 990.561 501.013 1040.82 548.263C1075.48 580.847 1114.83 613.485 1152.63 644.839C1169.71 659.002 1186.47 672.903 1202.34 686.419C1227.88 708.165 1251.11 728.92 1269.74 748.223C1288.4 767.554 1302.29 785.289 1309.3 800.988C1316.27 816.609 1316.32 829.928 1307.78 840.939C1299.11 852.135 1281.29 861.354 1251.37 867.797C1191.62 880.665 1101.14 879.238 998.111 867.066C895.139 854.901 779.833 832.027 670.549 802.128C561.253 772.225 458.061 735.316 379.282 695.108C339.89 675.002 306.671 654.106 281.857 632.895C257.017 611.662 240.777 590.265 235.021 569.184C211.585 483.349 238.595 395.078 301.553 321.709C364.51 248.342 463.331 190.004 583.127 164.202C702.937 138.398 779.595 156.853 832.207 202.774C884.994 248.848 914.052 322.939 937.695 409.533Z" stroke="#2F3A78" stroke-opacity="0.3" stroke-width="4"/>
<path d="M906.465 431.445C916.614 468.615 951.139 508.835 993.503 548.737C1022.73 576.262 1055.91 603.839 1087.78 630.323C1102.17 642.283 1116.3 654.02 1129.67 665.428C1151.19 683.792 1170.76 701.312 1186.46 717.6C1202.17 733.917 1213.86 748.86 1219.74 762.062C1225.6 775.187 1225.62 786.305 1218.52 795.483C1211.28 804.845 1196.36 812.6 1171.18 818.024C1120.9 828.852 1044.71 827.62 957.913 817.308C871.17 807.004 774.029 787.657 681.957 762.382C589.873 737.104 502.938 705.917 436.576 671.962C403.392 654.983 375.42 637.346 354.531 619.455C333.616 601.543 319.979 583.528 315.144 565.819C295.39 493.473 318.061 419.067 371.023 357.213C423.984 295.36 507.154 246.183 608.013 224.46C708.884 202.735 773.354 218.348 817.593 257.035C862.008 295.876 886.505 358.342 906.465 431.445Z" stroke="#2F3A78" stroke-opacity="0.3" stroke-width="4"/>
<path d="M1003.64 374.301C1019.04 430.706 1071.43 491.918 1135.97 552.845C1180.47 594.846 1230.97 636.914 1279.51 677.342C1301.44 695.61 1322.97 713.543 1343.36 730.984C1376.16 759.03 1406.01 785.809 1429.96 810.718C1453.94 835.655 1471.85 858.579 1480.9 878.91C1489.93 899.164 1490.05 916.556 1478.97 930.936C1467.74 945.5 1444.73 957.388 1406.33 965.658C1329.61 982.181 1213.46 980.222 1081.26 964.416C949.121 948.616 801.144 919.006 660.884 880.351C520.612 841.693 388.138 794.01 286.969 742.095C236.383 716.136 193.691 689.153 161.777 661.757C129.837 634.34 108.867 606.66 101.406 579.332C71.1476 468.513 105.744 354.662 186.475 260.134C267.205 165.607 393.989 90.5271 547.725 57.4162C701.472 24.3027 800.056 48.154 867.817 107.545C935.754 167.09 973.178 262.727 1003.64 374.301Z" stroke="#2F3A78" stroke-opacity="0.3" stroke-width="4"/>
<path d="M1121.45 181.01C1101.16 102.973 1029.92 17.5977 941.711 -67.7204C880.92 -126.515 811.838 -185.488 745.427 -242.18C715.407 -267.807 685.933 -292.967 658.018 -317.435C613.15 -356.761 572.297 -394.305 539.579 -429.175C506.834 -464.074 482.373 -496.156 470.137 -524.555C457.933 -552.878 457.987 -577.249 473.764 -597.241C489.683 -617.413 521.9 -633.536 575.161 -644.374C681.597 -666.031 842.215 -661.451 1024.7 -637.47C1207.13 -613.497 1411.21 -570.162 1604.48 -514.438C1797.75 -458.71 1980.13 -390.614 2119.18 -317.145C2188.7 -280.409 2247.33 -242.365 2291.05 -203.899C2334.81 -165.411 2363.47 -126.653 2373.39 -88.5108C2413.46 65.568 2363.66 222.748 2250.4 352.354C2137.15 481.96 1960.52 583.87 1747.34 627.247C1534.15 670.626 1397.98 636.07 1305.04 552.592C1211.92 468.957 1161.73 335.846 1121.45 181.01Z" stroke="#2F3A78" stroke-opacity="0.3" stroke-width="4"/>
<path d="M1149.73 160.461C1130.98 88.3856 1065.18 9.56074 983.737 -69.1814C927.606 -123.448 863.815 -177.882 802.495 -230.206C774.779 -253.856 747.568 -277.075 721.798 -299.654C680.372 -335.948 642.657 -370.594 612.455 -402.771C582.226 -434.977 559.658 -464.57 548.373 -490.756C537.122 -516.865 537.186 -539.297 551.712 -557.696C566.382 -576.275 596.089 -591.151 645.261 -601.156C743.519 -621.15 891.811 -616.938 1060.31 -594.819C1228.75 -572.707 1417.19 -532.727 1595.63 -481.31C1774.09 -429.89 1942.48 -367.054 2070.85 -299.26C2135.04 -265.361 2189.16 -230.258 2229.52 -194.768C2269.9 -159.257 2296.34 -123.511 2305.48 -88.3505C2342.45 53.804 2296.47 198.84 2191.9 318.451C2087.33 438.062 1924.26 532.126 1727.43 572.175C1530.6 612.227 1404.92 580.339 1319.16 503.343C1233.23 426.19 1186.9 303.373 1149.73 160.461Z" stroke="#2F3A78" stroke-opacity="0.3" stroke-width="4"/>
<path d="M1321.68 40.2807C1312.47 4.90121 1280.25 -33.6341 1240.64 -71.9391C1213.32 -98.3646 1182.25 -124.886 1152.41 -150.354C1138.94 -161.854 1125.71 -173.139 1113.2 -184.103C1093.06 -201.755 1074.75 -218.582 1060.1 -234.196C1045.42 -249.839 1034.55 -264.125 1029.13 -276.689C1023.75 -289.178 1023.86 -299.675 1030.63 -308.256C1037.55 -317.018 1051.7 -324.193 1075.55 -329.046C1123.17 -338.733 1195.14 -336.7 1277.06 -325.939C1358.93 -315.185 1450.52 -295.742 1537.26 -270.737C1624.01 -245.73 1705.83 -215.182 1768.18 -182.245C1799.35 -165.776 1825.59 -148.744 1845.13 -131.556C1864.7 -114.346 1877.38 -97.1313 1881.75 -80.3181C1899.63 -11.554 1877.43 58.6849 1826.73 116.695C1776.03 174.703 1696.92 220.36 1601.39 239.799C1505.85 259.239 1445.13 243.705 1403.77 206.564C1362.24 169.265 1339.76 109.802 1321.68 40.2807Z" stroke="#2F3A78" stroke-opacity="0.3" stroke-width="4"/>
<path d="M1370.98 5.4477C1364.53 -19.3522 1341.97 -46.2663 1314.39 -72.9052C1295.35 -91.2989 1273.68 -109.768 1252.9 -127.487C1243.52 -135.481 1234.32 -143.322 1225.62 -150.936C1211.6 -163.208 1198.87 -174.894 1188.69 -185.731C1178.48 -196.596 1170.97 -206.466 1167.25 -215.103C1163.56 -223.662 1163.68 -230.719 1168.23 -236.471C1172.92 -242.405 1182.61 -247.364 1199.19 -250.737C1232.25 -257.464 1282.31 -256.075 1339.35 -248.606C1396.34 -241.145 1460.1 -227.642 1520.49 -210.271C1580.89 -192.897 1637.83 -171.675 1681.2 -148.801C1702.88 -137.363 1721.11 -125.546 1734.66 -113.638C1748.24 -101.708 1756.96 -89.8391 1759.96 -78.3168C1772.34 -30.7146 1756.94 17.9669 1721.7 58.2302C1686.47 98.4925 1631.47 130.213 1565.03 143.732C1498.58 157.252 1456.53 146.446 1427.94 120.802C1399.17 95.0016 1383.56 53.8083 1370.98 5.4477Z" stroke="#2F3A78" stroke-opacity="0.3" stroke-width="4"/>
<path d="M1415.74 -26.0983C1411.78 -41.3262 1397.97 -57.7291 1381.3 -73.8176C1369.77 -84.9473 1356.63 -96.1336 1344.05 -106.845C1338.39 -111.669 1332.84 -116.397 1327.59 -120.98C1319.12 -128.389 1311.45 -135.426 1305.32 -141.941C1299.17 -148.485 1294.71 -154.362 1292.52 -159.445C1290.36 -164.45 1290.5 -168.392 1293.02 -171.584C1295.69 -174.958 1301.33 -177.909 1311.31 -179.939C1331.17 -183.981 1361.33 -183.163 1395.81 -178.661C1430.23 -174.166 1468.75 -166.025 1505.23 -155.548C1541.73 -145.067 1576.1 -132.271 1602.26 -118.493C1615.34 -111.603 1626.3 -104.502 1634.42 -97.369C1642.58 -90.2138 1647.71 -83.1794 1649.46 -76.4442C1656.86 -47.9883 1647.66 -18.8174 1626.46 5.37945C1605.26 29.5751 1572.14 48.6725 1532.11 56.8191C1492.06 64.9682 1466.93 58.4303 1449.92 43.1843C1432.73 27.7821 1423.34 3.11682 1415.74 -26.0983Z" stroke="#2F3A78" stroke-opacity="0.3" stroke-width="4"/>
<path d="M1202.7 100.449C1187.24 40.97 1132.96 -24.0249 1065.87 -88.8859C1019.62 -133.595 967.056 -178.447 916.539 -221.552C893.71 -241.031 871.299 -260.154 850.078 -278.746C815.955 -308.641 784.899 -337.169 760.032 -363.661C735.139 -390.181 716.585 -414.52 707.315 -436.03C698.078 -457.464 698.158 -475.799 710.024 -490.828C722.034 -506.039 746.405 -518.271 786.889 -526.509C867.771 -542.967 989.881 -539.505 1128.67 -521.287C1267.41 -503.077 1422.62 -470.149 1569.6 -427.801C1716.59 -385.449 1855.28 -333.699 1961 -277.871C2013.86 -249.956 2058.41 -221.056 2091.62 -191.849C2124.87 -162.62 2146.58 -133.236 2154.09 -104.373C2184.51 12.5902 2146.68 131.953 2060.59 230.422C1974.5 328.89 1840.23 406.342 1678.16 439.32C1516.08 472.3 1412.69 446.027 1342.17 382.713C1271.47 319.24 1233.32 218.17 1202.7 100.449Z" stroke="#2F3A78" stroke-opacity="0.3" stroke-width="4"/>
<path d="M1249.27 90.2114C1236.07 39.4645 1189.76 -15.9364 1132.59 -71.1661C1093.17 -109.245 1048.36 -147.448 1005.31 -184.155C985.853 -200.74 966.758 -217.02 948.68 -232.845C919.603 -258.299 893.147 -282.583 871.967 -305.13C850.761 -327.706 834.981 -348.4 827.106 -366.667C819.263 -384.858 819.358 -400.354 829.391 -413.049C839.568 -425.926 860.26 -436.331 894.75 -443.349C963.644 -457.367 1067.68 -454.443 1185.97 -438.948C1304.21 -423.461 1436.48 -395.444 1561.74 -359.402C1687.01 -323.358 1805.19 -279.311 1895.27 -231.793C1940.31 -208.033 1978.25 -183.439 2006.53 -158.592C2034.84 -133.722 2053.29 -108.75 2059.66 -84.2542C2085.54 15.2422 2053.32 116.815 1979.96 200.642C1906.61 284.467 1792.2 350.422 1654.11 378.522C1516 406.623 1428 384.258 1368 330.436C1307.82 276.457 1275.35 190.466 1249.27 90.2114Z" stroke="#2F3A78" stroke-opacity="0.3" stroke-width="4"/>
<path d="M1285.45 65.3656C1274.29 22.4292 1235.18 -24.4088 1186.99 -71.0488C1153.75 -103.213 1115.97 -135.489 1079.67 -166.493C1063.28 -180.498 1047.19 -194.244 1031.96 -207.602C1007.45 -229.097 985.161 -249.596 967.319 -268.624C949.45 -287.681 936.178 -305.121 929.557 -320.492C922.969 -335.787 923.066 -348.742 931.425 -359.342C939.926 -370.123 957.264 -378.88 986.298 -384.788C1044.28 -396.586 1131.89 -394.088 1231.55 -380.968C1331.15 -367.856 1442.59 -344.163 1548.12 -313.7C1653.67 -283.234 1753.23 -246.018 1829.11 -205.89C1867.05 -185.825 1899.01 -165.066 1922.82 -144.105C1946.65 -123.123 1962.16 -102.09 1967.51 -81.4972C1989.33 2.38248 1962.27 88.0162 1900.55 158.697C1838.84 229.376 1742.55 284.981 1626.27 308.64C1509.99 332.301 1435.96 313.386 1385.49 268.029C1334.85 222.514 1307.47 150.002 1285.45 65.3656Z" stroke="#2F3A78" stroke-opacity="0.3" stroke-width="4"/>
<path d="M1173.01 129.938C1156.05 64.7339 1096.69 -6.57828 1023.26 -77.7915C972.656 -126.875 915.146 -176.116 859.87 -223.444C834.888 -244.834 810.363 -265.833 787.137 -286.25C749.797 -319.076 715.805 -350.405 688.582 -379.496C661.333 -408.616 641.001 -435.354 630.829 -458.994C620.689 -482.559 620.744 -502.755 633.757 -519.303C646.912 -536.03 673.599 -549.442 717.865 -558.449C806.313 -576.446 939.853 -572.548 1091.63 -552.45C1243.35 -532.359 1413.09 -496.108 1573.85 -449.528C1734.62 -402.945 1886.32 -346.056 2001.99 -284.714C2059.82 -254.042 2108.58 -222.292 2144.94 -190.208C2181.33 -158.103 2205.14 -125.814 2213.39 -94.0852C2246.79 34.3359 2205.52 165.318 2111.46 273.311C2017.41 381.302 1870.65 466.183 1693.44 502.241C1516.23 538.3 1403.09 509.398 1325.85 439.821C1248.43 370.084 1206.61 259.114 1173.01 129.938Z" stroke="#2F3A78" stroke-opacity="0.3" stroke-width="4"/>
<path d="M2236.45 1532.01C2216.16 1453.97 2144.92 1368.6 2056.71 1283.28C1995.92 1224.48 1926.84 1165.51 1860.43 1108.82C1830.41 1083.19 1800.93 1058.03 1773.02 1033.56C1728.15 994.238 1687.3 956.695 1654.58 921.825C1621.83 886.926 1597.37 854.844 1585.14 826.445C1572.93 798.122 1572.99 773.751 1588.76 753.759C1604.68 733.587 1636.9 717.463 1690.16 706.626C1796.6 684.969 1957.22 689.549 2139.7 713.53C2322.13 737.503 2526.21 780.838 2719.48 836.562C2912.75 892.29 3095.13 960.386 3234.18 1033.85C3303.7 1070.59 3362.33 1108.63 3406.05 1147.1C3449.81 1185.59 3478.47 1224.35 3488.39 1262.49C3528.46 1416.57 3478.66 1573.75 3365.4 1703.35C3252.14 1832.96 3075.52 1934.87 2862.34 1978.25C2649.15 2021.63 2512.98 1987.07 2420.04 1903.59C2326.92 1819.96 2276.73 1686.85 2236.45 1532.01Z" stroke="#2F3A78" stroke-opacity="0.3" stroke-width="4"/>
<path d="M2264.73 1511.46C2245.98 1439.39 2180.18 1360.56 2098.74 1281.82C2042.61 1227.55 1978.81 1173.12 1917.5 1120.79C1889.78 1097.14 1862.57 1073.92 1836.8 1051.35C1795.37 1015.05 1757.66 980.406 1727.45 948.229C1697.23 916.023 1674.66 886.43 1663.37 860.244C1652.12 834.135 1652.19 811.703 1666.71 793.304C1681.38 774.724 1711.09 759.849 1760.26 749.843C1858.52 729.85 2006.81 734.062 2175.31 756.181C2343.75 778.293 2532.19 818.273 2710.63 869.69C2889.09 921.11 3057.48 983.945 3185.85 1051.74C3250.04 1085.64 3304.16 1120.74 3344.51 1156.23C3384.9 1191.74 3411.33 1227.49 3420.48 1262.65C3457.45 1404.8 3411.47 1549.84 3306.9 1669.45C3202.33 1789.06 3039.26 1883.13 2842.43 1923.17C2645.6 1963.23 2519.92 1931.34 2434.16 1854.34C2348.23 1777.19 2301.9 1654.37 2264.73 1511.46Z" stroke="#2F3A78" stroke-opacity="0.3" stroke-width="4"/>
<path d="M2317.7 1451.45C2302.23 1391.97 2247.96 1326.97 2180.87 1262.11C2134.62 1217.4 2082.06 1172.55 2031.54 1129.45C2008.71 1109.97 1986.3 1090.85 1965.08 1072.25C1930.95 1042.36 1899.9 1013.83 1875.03 987.339C1850.14 960.819 1831.58 936.48 1822.31 914.97C1813.08 893.536 1813.16 875.2 1825.02 860.171C1837.03 844.961 1861.41 832.728 1901.89 824.491C1982.77 808.033 2104.88 811.494 2243.67 829.712C2382.41 847.923 2537.62 880.851 2684.6 923.199C2831.59 965.551 2970.28 1017.3 3076 1073.13C3128.86 1101.04 3173.41 1129.94 3206.62 1159.15C3239.87 1188.38 3261.58 1217.76 3269.09 1246.63C3299.51 1363.59 3261.68 1482.95 3175.59 1581.42C3089.5 1679.89 2955.23 1757.34 2793.16 1790.32C2631.08 1823.3 2527.69 1797.03 2457.17 1733.71C2386.47 1670.24 2348.32 1569.17 2317.7 1451.45Z" stroke="#2F3A78" stroke-opacity="0.3" stroke-width="4"/>
<path d="M2364.27 1441.21C2351.07 1390.46 2304.76 1335.06 2247.59 1279.83C2208.17 1241.75 2163.36 1203.55 2120.31 1166.84C2100.85 1150.26 2081.76 1133.98 2063.68 1118.16C2034.6 1092.7 2008.15 1068.42 1986.97 1045.87C1965.76 1023.29 1949.98 1002.6 1942.11 984.332C1934.26 966.142 1934.36 950.646 1944.39 937.951C1954.57 925.074 1975.26 914.669 2009.75 907.651C2078.64 893.633 2182.68 896.557 2300.97 912.051C2419.21 927.538 2551.48 955.556 2676.74 991.597C2802.01 1027.64 2920.19 1071.69 3010.27 1119.21C3055.31 1142.97 3093.25 1167.56 3121.53 1192.41C3149.84 1217.28 3168.29 1242.25 3174.66 1266.75C3200.54 1366.24 3168.31 1467.81 3094.96 1551.64C3021.61 1635.47 2907.2 1701.42 2769.11 1729.52C2631 1757.62 2543 1735.26 2483 1681.44C2422.82 1627.46 2390.35 1541.47 2364.27 1441.21Z" stroke="#2F3A78" stroke-opacity="0.3" stroke-width="4"/>
<path d="M2400.45 1416.37C2389.29 1373.43 2350.18 1326.59 2301.99 1279.95C2268.75 1247.79 2230.97 1215.51 2194.67 1184.51C2178.28 1170.5 2162.19 1156.76 2146.96 1143.4C2122.45 1121.9 2100.16 1101.4 2082.32 1082.38C2064.45 1063.32 2051.18 1045.88 2044.56 1030.51C2037.97 1015.21 2038.07 1002.26 2046.42 991.657C2054.93 980.876 2072.26 972.12 2101.3 966.212C2159.28 954.414 2246.89 956.912 2346.55 970.032C2446.15 983.144 2557.59 1006.84 2663.12 1037.3C2768.67 1067.77 2868.23 1104.98 2944.11 1145.11C2982.05 1165.17 3014.01 1185.93 3037.82 1206.89C3061.65 1227.88 3077.16 1248.91 3082.51 1269.5C3104.33 1353.38 3077.27 1439.02 3015.55 1509.7C2953.84 1580.38 2857.54 1635.98 2741.27 1659.64C2624.99 1683.3 2550.96 1664.39 2500.49 1619.03C2449.85 1573.51 2422.47 1501 2400.45 1416.37Z" stroke="#2F3A78" stroke-opacity="0.3" stroke-width="4"/>
<path d="M2288.01 1480.94C2271.05 1415.73 2211.68 1344.42 2138.26 1273.21C2087.66 1224.13 2030.15 1174.88 1974.87 1127.56C1949.89 1106.17 1925.36 1085.17 1902.14 1064.75C1864.8 1031.92 1830.8 1000.6 1803.58 971.504C1776.33 942.384 1756 915.646 1745.83 892.006C1735.69 868.44 1735.74 848.244 1748.76 831.697C1761.91 814.969 1788.6 801.558 1832.87 792.551C1921.31 774.554 2054.85 778.452 2206.63 798.55C2358.35 818.641 2528.09 854.892 2688.85 901.471C2849.62 948.054 3001.32 1004.94 3116.98 1066.29C3174.82 1096.96 3223.58 1128.71 3259.94 1160.79C3296.33 1192.9 3320.14 1225.19 3328.39 1256.91C3361.79 1385.34 3320.52 1516.32 3226.46 1624.31C3132.41 1732.3 2985.65 1817.18 2808.44 1853.24C2631.23 1889.3 2518.09 1860.4 2440.85 1790.82C2363.43 1721.08 2321.61 1610.11 2288.01 1480.94Z" stroke="#2F3A78" stroke-opacity="0.3" stroke-width="4"/>
<path d="M-416.174 1483.57C-431.444 1454.73 -457.44 1426.99 -490.428 1400.23C-523.428 1373.46 -563.53 1347.6 -607.137 1322.56C-667.174 1288.08 -734.014 1255.07 -798.255 1223.34C-827.288 1209 -855.791 1194.92 -882.894 1181.09C-926.472 1158.85 -966.446 1137.24 -999.307 1116.16C-1032.2 1095.06 -1057.8 1074.6 -1072.77 1054.7C-1087.69 1034.88 -1091.92 1015.86 -1082.68 997.231C-1073.32 978.372 -1049.99 959.479 -1008.48 940.64C-925.569 903.004 -793.798 875.494 -640.721 859.006C-487.696 842.524 -313.571 837.075 -146.066 843.466C21.4519 849.858 182.264 868.09 308.687 898.935C371.901 914.358 426.44 932.917 468.898 954.683C511.388 976.466 541.554 1001.35 556.358 1029.31C616.332 1142.57 603.691 1275.72 534.388 1399.55C465.088 1523.37 339.199 1637.72 173.089 1713.12C6.95881 1788.53 -110.122 1787.68 -200.608 1740.1C-291.283 1692.42 -355.82 1597.56 -416.174 1483.57Z" stroke="#2F3A78" stroke-opacity="0.3" stroke-width="4"/>
<path d="M-396.766 1461.93C-410.874 1435.28 -434.891 1409.66 -465.353 1384.96C-495.828 1360.25 -532.859 1336.38 -573.122 1313.27C-628.555 1281.45 -690.273 1250.98 -749.586 1221.7C-776.389 1208.47 -802.701 1195.48 -827.72 1182.72C-867.951 1162.2 -904.85 1142.26 -935.181 1122.81C-965.547 1103.34 -989.155 1084.47 -1002.96 1066.13C-1016.7 1047.87 -1020.58 1030.37 -1012.08 1013.24C-1003.46 995.872 -981.951 978.446 -943.635 961.054C-867.093 926.311 -745.441 900.899 -604.101 885.657C-462.815 870.42 -302.046 865.364 -147.392 871.238C7.27435 877.112 155.742 893.916 272.451 922.365C330.809 936.591 381.15 953.71 420.332 973.787C459.548 993.881 487.362 1016.82 501.004 1042.59C556.329 1147.08 544.648 1269.93 480.652 1384.21C416.66 1498.49 300.428 1604.04 147.066 1673.65C-6.31749 1743.28 -114.365 1742.5 -197.842 1698.62C-281.507 1654.65 -341.06 1567.14 -396.766 1461.93Z" stroke="#2F3A78" stroke-opacity="0.3" stroke-width="4"/>
<path d="M-277.891 1334.09C-284.847 1320.95 -296.651 1308.38 -311.526 1296.31C-326.413 1284.24 -344.482 1272.59 -364.092 1261.33C-391.085 1245.83 -421.16 1230.98 -450.026 1216.73C-463.054 1210.29 -475.836 1203.98 -487.976 1197.78C-507.536 1187.8 -525.445 1178.12 -540.151 1168.69C-554.892 1159.24 -566.24 1150.14 -572.837 1141.37C-579.373 1132.69 -581.093 1124.58 -577.168 1116.66C-573.131 1108.52 -562.935 1100.17 -544.357 1091.74C-507.288 1074.91 -448.26 1062.57 -379.548 1055.16C-310.889 1047.77 -232.75 1045.32 -157.58 1048.18C-82.3967 1051.04 -10.2666 1059.22 46.3998 1073.04C74.7364 1079.95 99.1294 1088.26 118.081 1097.97C137.067 1107.71 150.368 1118.74 156.857 1130.99C183.575 1181.45 177.992 1240.86 146.984 1296.26C115.98 1351.65 59.6244 1402.85 -14.7916 1436.63C-89.2284 1470.42 -141.397 1469.92 -181.58 1448.79C-221.951 1427.57 -250.794 1385.26 -277.891 1334.09Z" stroke="#2F3A78" stroke-opacity="0.3" stroke-width="4"/>
<path d="M-243.868 1297.14C-248.762 1287.89 -257.05 1279.08 -267.438 1270.67C-277.84 1262.24 -290.452 1254.12 -304.12 1246.29C-322.931 1235.5 -343.903 1225.16 -364.009 1215.25C-373.075 1210.78 -381.964 1206.39 -390.4 1202.1C-404.013 1195.16 -416.458 1188.44 -426.668 1181.9C-436.913 1175.34 -444.732 1169.07 -449.253 1163.06C-453.711 1157.14 -454.807 1151.73 -452.195 1146.47C-449.47 1140.99 -442.522 1135.24 -429.612 1129.38C-403.881 1117.7 -362.848 1109.1 -315.008 1103.93C-267.222 1098.76 -212.833 1097.03 -160.512 1098.99C-108.177 1100.96 -57.994 1106.62 -18.5935 1116.2C1.11017 1120.99 18.0405 1126.75 31.1722 1133.47C44.3378 1140.21 53.4606 1147.8 57.8877 1156.16C76.3555 1191.04 72.4975 1232.17 50.9446 1270.61C29.3948 1309.05 -9.77487 1344.62 -61.5154 1368.11C-113.277 1391.6 -149.384 1391.21 -177.111 1376.65C-205.026 1362 -225.02 1332.73 -243.868 1297.14Z" stroke="#2F3A78" stroke-opacity="0.3" stroke-width="4"/>
<path d="M-212.972 1263.65C-216 1257.93 -221.103 1252.53 -227.427 1247.41C-233.764 1242.28 -241.431 1237.35 -249.715 1232.61C-261.11 1226.08 -273.832 1219.82 -286 1213.82C-291.474 1211.13 -296.835 1208.49 -301.914 1205.9C-310.137 1201.72 -317.63 1197.68 -323.766 1193.75C-329.937 1189.8 -334.559 1186.08 -337.2 1182.57C-339.777 1179.15 -340.31 1176.19 -338.891 1173.34C-337.359 1170.26 -333.36 1166.87 -325.594 1163.35C-310.15 1156.34 -285.44 1151.14 -256.533 1148.01C-227.678 1144.88 -194.829 1143.82 -163.228 1144.99C-131.614 1146.16 -101.332 1149.57 -77.5847 1155.33C-65.7078 1158.21 -55.5425 1161.67 -47.6856 1165.68C-39.7948 1169.72 -34.4571 1174.2 -31.8961 1179.04C-20.8919 1199.82 -23.1653 1224.41 -36.1247 1247.49C-49.0808 1270.57 -72.6472 1291.98 -103.812 1306.12C-134.998 1320.28 -156.538 1319.96 -172.977 1311.34C-189.603 1302.62 -201.586 1285.15 -212.972 1263.65Z" stroke="#2F3A78" stroke-opacity="0.3" stroke-width="4"/>
<path d="M-364.226 1404.46C-375.879 1382.45 -395.704 1361.31 -420.817 1340.95C-445.943 1320.58 -476.467 1300.9 -509.643 1281.86C-555.316 1255.65 -606.176 1230.54 -655.041 1206.42C-677.117 1195.52 -698.786 1184.82 -719.386 1174.31C-752.524 1157.41 -782.906 1140.99 -807.875 1124.99C-832.879 1108.95 -852.28 1093.44 -863.611 1078.38C-874.881 1063.41 -878.017 1049.14 -871.084 1035.16C-864.039 1020.97 -846.41 1006.65 -814.866 992.334C-751.866 963.738 -651.7 942.809 -535.28 930.252C-418.913 917.701 -286.495 913.535 -159.114 918.371C-31.7198 923.207 90.5546 937.045 186.661 960.471C234.718 972.184 276.155 986.277 308.395 1002.8C340.669 1019.33 363.502 1038.18 374.689 1059.31C420.194 1145.25 410.601 1246.33 357.92 1340.41C305.243 1434.48 209.551 1521.38 83.2743 1578.7C-43.0237 1636.03 -131.898 1635.34 -200.519 1599.28C-269.327 1563.12 -318.34 1491.12 -364.226 1404.46Z" stroke="#2F3A78" stroke-opacity="0.3" stroke-width="4"/>
<path d="M-328.066 1387.39C-338.018 1368.59 -354.942 1350.56 -376.355 1333.21C-397.781 1315.85 -423.805 1299.09 -452.08 1282.87C-491.006 1260.55 -534.359 1239.17 -576.001 1218.64C-594.81 1209.36 -613.269 1200.26 -630.814 1191.32C-659.048 1176.93 -684.925 1162.96 -706.186 1149.34C-727.482 1135.7 -743.972 1122.51 -753.59 1109.74C-763.146 1097.04 -765.766 1085 -759.914 1073.22C-753.948 1061.21 -738.995 1049.05 -712.123 1036.85C-658.466 1012.5 -573.132 994.645 -473.916 983.918C-374.754 973.197 -261.914 969.611 -153.368 973.694C-44.8091 977.778 59.3723 989.529 141.244 1009.45C182.183 1019.41 217.466 1031.39 244.907 1045.44C272.382 1059.5 291.769 1075.52 301.253 1093.43C339.95 1166.51 331.768 1252.51 286.872 1332.6C241.978 1412.69 160.445 1486.7 52.8542 1535.53C-54.7576 1584.38 -130.392 1583.79 -188.741 1553.16C-247.278 1522.42 -288.989 1461.19 -328.066 1387.39Z" stroke="#2F3A78" stroke-opacity="0.3" stroke-width="4"/>
<path d="M-302.974 1360.84C-311.403 1344.92 -325.717 1329.65 -343.793 1314.98C-361.883 1300.3 -383.845 1286.14 -407.695 1272.43C-440.526 1253.56 -477.096 1235.48 -512.211 1218.12C-528.067 1210.28 -543.626 1202.59 -558.41 1195.04C-582.213 1182.88 -604.02 1171.08 -621.934 1159.58C-639.884 1148.06 -653.751 1136.95 -661.831 1126.21C-669.849 1115.55 -672.016 1105.51 -667.157 1095.7C-662.185 1085.66 -649.674 1075.45 -627.054 1065.18C-581.902 1044.68 -510.042 1029.68 -426.444 1020.7C-342.9 1011.72 -247.822 1008.76 -156.355 1012.28C-64.8759 1015.8 22.9086 1025.78 91.8917 1042.64C126.387 1051.07 156.104 1061.2 179.208 1073.05C202.346 1084.92 218.629 1098.41 226.592 1113.45C259.202 1175.04 252.399 1247.5 214.658 1314.99C176.92 1382.48 108.316 1444.84 17.7331 1485.96C-72.8704 1527.08 -136.495 1526.5 -185.565 1500.68C-234.823 1474.76 -269.985 1423.14 -302.974 1360.84Z" stroke="#2F3A78" stroke-opacity="0.3" stroke-width="4"/>
<path d="M-383.2 1433.41C-395.969 1409.29 -417.671 1386.1 -445.168 1363.75C-472.679 1341.38 -506.095 1319.77 -542.417 1298.84C-592.422 1270.03 -648.095 1242.43 -701.591 1215.91C-725.763 1203.92 -749.49 1192.16 -772.049 1180.6C-808.333 1162.02 -841.606 1143.97 -868.959 1126.37C-896.346 1108.75 -917.623 1091.69 -930.069 1075.14C-942.455 1058.66 -945.942 1042.93 -938.343 1027.54C-930.633 1011.93 -911.326 996.239 -876.834 980.582C-807.938 949.309 -698.372 926.509 -571.029 912.917C-443.739 899.33 -298.876 894.961 -159.508 900.456C-20.1266 905.952 113.677 921.312 218.873 947.147C271.475 960.066 316.848 975.586 352.167 993.758C387.519 1011.95 412.575 1032.68 424.879 1055.92C474.852 1150.29 464.517 1261.18 407.032 1364.29C349.55 1467.39 244.99 1562.56 106.919 1625.23C-31.1728 1687.91 -128.468 1687.05 -203.678 1647.36C-279.079 1607.58 -332.849 1528.5 -383.2 1433.41Z" stroke="#2F3A78" stroke-opacity="0.3" stroke-width="4"/>
</svg>
